<svg width="24" height="24" viewBox="0 0 24 24" fill="none" xmlns="http://www.w3.org/2000/svg">
<path d="M12 24C5.38047 24 0 18.6195 0 12C0 5.38047 5.38047 0 12 0C18.6195 0 24 5.38047 24 12C24 18.6195 18.6195 24 12 24ZM12 1.67442C6.30698 1.67442 1.67442 6.30698 1.67442 12C1.67442 17.693 6.30698 22.3256 12 22.3256C17.693 22.3256 22.3256 17.693 22.3256 12C22.3256 6.30698 17.693 1.67442 12 1.67442Z" fill="#292D32"/>
<path d="M8.84022 15.9964C8.62813 15.9964 8.41605 15.9182 8.2486 15.7508C7.92488 15.4271 7.92488 14.8913 8.2486 14.5675L14.5668 8.24941C14.8905 7.92569 15.4263 7.92569 15.75 8.24941C16.0737 8.57313 16.0737 9.10895 15.75 9.43267L9.43185 15.7508C9.27557 15.9182 9.05231 15.9964 8.84022 15.9964Z" fill="#292D32"/>
<path d="M15.1584 15.9964C14.9463 15.9964 14.7342 15.9182 14.5668 15.7508L8.2486 9.43267C7.92488 9.10895 7.92488 8.57313 8.2486 8.24941C8.57231 7.92569 9.10813 7.92569 9.43185 8.24941L15.75 14.5675C16.0737 14.8913 16.0737 15.4271 15.75 15.7508C15.5826 15.9182 15.3705 15.9964 15.1584 15.9964Z" fill="#292D32"/>
</svg>
