<svg width="15" height="15" viewBox="0 0 15 15" fill="none" xmlns="http://www.w3.org/2000/svg">
<path d="M13.1171 0.232849L7.20412 6.14585L1.29112 0.232849C1.1489 0.102708 0.961956 0.0324552 0.769229 0.0367255C0.576501 0.0409958 0.392853 0.11946 0.25654 0.255773C0.120228 0.392085 0.0417635 0.575734 0.0374932 0.768461C0.0332229 0.961189 0.103476 1.14813 0.233617 1.29035L6.14362 7.20335L0.232117 13.1148C0.159895 13.1837 0.102162 13.2662 0.0623104 13.3577C0.0224588 13.4492 0.00129289 13.5477 5.74026e-05 13.6474C-0.00117809 13.7472 0.0175417 13.8462 0.055116 13.9386C0.0926903 14.031 0.148361 14.115 0.218856 14.1856C0.28935 14.2562 0.373246 14.312 0.465612 14.3497C0.557978 14.3874 0.656949 14.4062 0.756709 14.4052C0.856468 14.4041 0.955002 14.383 1.04652 14.3433C1.13803 14.3036 1.22069 14.246 1.28962 14.1738L7.20412 8.26235L13.1171 14.1753C13.2593 14.3055 13.4463 14.3757 13.639 14.3715C13.8317 14.3672 14.0154 14.2887 14.1517 14.1524C14.288 14.0161 14.3665 13.8325 14.3707 13.6397C14.375 13.447 14.3048 13.2601 14.1746 13.1178L8.26162 7.20485L14.1746 1.29035C14.2468 1.22152 14.3046 1.13895 14.3444 1.04749C14.3843 0.956031 14.4054 0.857527 14.4067 0.757769C14.4079 0.658012 14.3892 0.559014 14.3516 0.466595C14.314 0.374175 14.2584 0.2902 14.1879 0.219606C14.1174 0.149011 14.0335 0.0932212 13.9411 0.055516C13.8488 0.0178107 13.7498 -0.00104908 13.65 4.50155e-05C13.5503 0.00113911 13.4517 0.0221651 13.3602 0.0618871C13.2687 0.101609 13.186 0.159225 13.1171 0.231349V0.232849Z" fill="#4C4C4C"/>
</svg>
