<svg width="17" height="4" viewBox="0 0 17 4" fill="none" xmlns="http://www.w3.org/2000/svg">
<path d="M2.27778 0C1.3 0 0.5 0.8 0.5 1.77778C0.5 2.75556 1.3 3.55556 2.27778 3.55556C3.25556 3.55556 4.05556 2.75556 4.05556 1.77778C4.05556 0.8 3.25556 0 2.27778 0Z" fill="white"/>
<path d="M14.7222 0C13.7445 0 12.9445 0.8 12.9445 1.77778C12.9445 2.75556 13.7445 3.55556 14.7222 3.55556C15.7 3.55556 16.5 2.75556 16.5 1.77778C16.5 0.8 15.7 0 14.7222 0Z" fill="white"/>
<path d="M8.49995 0C7.52217 0 6.72217 0.8 6.72217 1.77778C6.72217 2.75556 7.52217 3.55556 8.49995 3.55556C9.47772 3.55556 10.2777 2.75556 10.2777 1.77778C10.2777 0.8 9.47772 0 8.49995 0Z" fill="white"/>
</svg>
