<svg width="22" height="22" viewBox="0 0 22 22" fill="none" xmlns="http://www.w3.org/2000/svg">
<path d="M16.4944 12.5307C16.0757 12.9416 15.8364 13.533 15.8962 14.1644C15.9859 15.2469 16.973 16.0387 18.0499 16.0387H19.9443V17.2314C19.9443 19.3061 18.2593 21 16.1953 21H4.74898C2.68505 21 1 19.3061 1 17.2314V10.486C1 8.41128 2.68505 6.71741 4.74898 6.71741H16.1953C18.2593 6.71741 19.9443 8.41128 19.9443 10.486V11.9293H17.9302C17.3719 11.9293 16.8634 12.1498 16.4944 12.5307Z" stroke="#4C4C4C" stroke-width="1.14973" stroke-linecap="round" stroke-linejoin="round"/>
<path d="M1 11.3882V6.8077C1 5.61498 1.72786 4.55252 2.83461 4.13155L10.7513 1.12469C11.9877 0.653615 13.3138 1.57575 13.3138 2.90879V6.71748" stroke="#4C4C4C" stroke-width="1.14973" stroke-linecap="round" stroke-linejoin="round"/>
<path d="M21 12.9518V15.0165C21 15.5678 20.5612 16.0188 20.0029 16.0389H18.0486C16.9718 16.0389 15.9847 15.2471 15.895 14.1646C15.8351 13.5332 16.0744 12.9418 16.4932 12.5309C16.8621 12.15 17.3706 11.9295 17.929 11.9295H20.0029C20.5612 11.9496 21 12.4006 21 12.9518Z" stroke="#4C4C4C" stroke-width="1.14973" stroke-linecap="round" stroke-linejoin="round"/>
<path d="M5.48682 10.9771H12.4663" stroke="#4C4C4C" stroke-width="1.14973" stroke-linecap="round" stroke-linejoin="round"/>
</svg>
