<svg width="19" height="16" viewBox="0 0 19 16" fill="none" xmlns="http://www.w3.org/2000/svg">
<path d="M2.41608 16H16.5839C18.0327 16 18.9358 14.4289 18.2115 13.1777L11.1275 0.93841C10.4031 -0.312803 8.59688 -0.312803 7.87249 0.93841L0.78856 13.1777C0.0641735 14.4289 0.967304 16 2.41608 16ZM9.50001 9.41467C8.98259 9.41467 8.55925 8.99133 8.55925 8.47391V6.59239C8.55925 6.07497 8.98259 5.65162 9.50001 5.65162C10.0174 5.65162 10.4408 6.07497 10.4408 6.59239V8.47391C10.4408 8.99133 10.0174 9.41467 9.50001 9.41467ZM10.4408 13.1777H8.55925V11.2962H10.4408V13.1777Z" fill="#EB455F"/>
</svg>
