<svg width="27" height="26" viewBox="0 0 27 26" fill="none" xmlns="http://www.w3.org/2000/svg">
<path d="M25.2023 14.334V16.7042C25.2023 22.6298 22.832 25 16.9065 25H9.7958C3.87023 25 1.5 22.6298 1.5 16.7042V14.9028" stroke="#3167CF" stroke-width="2" stroke-linecap="round" stroke-linejoin="round"/>
<path d="M12.166 1.29773H9.7958C3.87023 1.29773 1.5 3.66796 1.5 9.59353" stroke="#3167CF" stroke-width="2" stroke-linecap="round" stroke-linejoin="round"/>
<path d="M22.7489 9.60538L23.9933 8.36101C25.6051 6.74926 26.3635 4.87678 23.9933 2.50655C21.6231 0.136324 19.7506 0.894797 18.1388 2.50655L8.80012 11.8452C8.44459 12.2008 8.08905 12.9 8.01794 13.4096L7.50835 16.9768C7.31873 18.2686 8.23127 19.1692 9.52304 18.9915L13.0903 18.4819C13.588 18.4108 14.2872 18.0552 14.6546 17.6997L18.4233 13.931L19.2884 13.0659" stroke="#3167CF" stroke-width="2" stroke-miterlimit="10" stroke-linecap="round" stroke-linejoin="round"/>
<path d="M16.8 3.8456C17.5941 6.67802 19.8102 8.89418 22.6545 9.70006" stroke="#3167CF" stroke-width="2" stroke-miterlimit="10" stroke-linecap="round" stroke-linejoin="round"/>
</svg>
