<svg width="20" height="20" viewBox="0 0 20 20" fill="none" xmlns="http://www.w3.org/2000/svg">
<path d="M6.82559 0H6.95218C11.2754 0 13.3592 1.70399 13.7195 5.52093C13.7584 5.92015 13.4663 6.28042 13.0573 6.31937C12.6678 6.35832 12.2978 6.05647 12.2589 5.65725C11.9765 2.5998 10.5354 1.46056 6.94244 1.46056H6.81586C2.85286 1.46056 1.45072 2.86271 1.45072 6.8257L1.45072 13.1743C1.45072 17.1373 2.85286 18.5394 6.81586 18.5394H6.94244C10.5549 18.5394 11.996 17.3807 12.2589 14.2649C12.3076 13.8656 12.6484 13.5638 13.0573 13.6027C13.4663 13.6319 13.7584 13.9922 13.7292 14.3914C13.3981 18.2668 11.3047 20 6.95218 20H6.82559C2.04468 20 -0.000105858 17.9552 -0.000105858 13.1743L-0.000105858 6.8257C-0.000105858 2.04479 2.04468 0 6.82559 0Z" fill="#4C4C4C"/>
<path d="M7.06065 9.26966L18.1414 9.26966C18.5406 9.26966 18.8717 9.60072 18.8717 9.99994C18.8717 10.3992 18.5406 10.7302 18.1414 10.7302L7.06065 10.7302C6.66143 10.7302 6.33037 10.3992 6.33037 9.99994C6.33037 9.60072 6.66143 9.26966 7.06065 9.26966Z" fill="#4C4C4C"/>
<path d="M15.9698 6.00764C16.1548 6.00764 16.3398 6.0758 16.4859 6.22185L19.7478 9.48378C20.0302 9.76615 20.0302 10.2335 19.7478 10.5159L16.4859 13.7778C16.2035 14.0602 15.7361 14.0602 15.4538 13.7778C15.1714 13.4955 15.1714 13.0281 15.4538 12.7457L18.1996 9.99984L15.4538 7.25398C15.1714 6.97161 15.1714 6.50423 15.4538 6.22185C15.5901 6.0758 15.7848 6.00764 15.9698 6.00764Z" fill="#4C4C4C"/>
</svg>
