<svg width="20" height="20" viewBox="0 0 20 20" fill="none" xmlns="http://www.w3.org/2000/svg">
<path d="M12.5945 16.9036C12.4922 16.9036 12.3805 16.8757 12.2875 16.8292C11.9433 16.6525 11.8038 16.2341 11.9712 15.8901L13.962 11.9198C14.0829 11.6873 14.3248 11.5386 14.5852 11.5386C14.8457 11.5386 15.0876 11.6873 15.2085 11.9291L17.1992 15.8994C17.3759 16.2434 17.2364 16.6618 16.8829 16.8385C16.5387 17.0152 16.1201 16.8757 15.9434 16.5224L14.5852 13.798L13.2271 16.5224C13.0968 16.7641 12.8457 16.9036 12.5945 16.9036Z" fill="#4C4C4C"/>
<path d="M16.2142 16.1972H12.9399C12.5585 16.1972 12.2422 15.8811 12.2422 15.4998C12.2422 15.1186 12.5585 14.8025 12.9399 14.8025H16.2142C16.5956 14.8025 16.9119 15.1186 16.9119 15.4998C16.9119 15.8811 16.6049 16.1972 16.2142 16.1972Z" fill="#4C4C4C"/>
<path d="M14.5766 19.9998C11.5906 19.9998 9.15332 17.573 9.15332 14.579C9.15332 11.585 11.5813 9.1582 14.5766 9.1582C17.5627 9.1582 19.9999 11.585 19.9999 14.579C19.9999 17.573 17.572 19.9998 14.5766 19.9998ZM14.5766 10.5622C12.3534 10.5622 10.5487 12.366 10.5487 14.5883C10.5487 16.8105 12.3534 18.6144 14.5766 18.6144C16.7906 18.6144 18.6046 16.8105 18.6046 14.5883C18.6046 12.366 16.7999 10.5622 14.5766 10.5622Z" fill="#4C4C4C"/>
<path d="M3.35817 10.6557C2.3256 10.6557 1.50699 10.3674 0.930241 9.80947C0.316282 9.21439 0 8.31247 0 7.15025V3.5054C0 1.24596 1.24652 0 3.50701 0H7.15355C8.31636 0 9.20939 0.306837 9.81404 0.92981C10.4001 1.53419 10.6885 2.40825 10.6606 3.52402V7.15025C10.6885 8.28458 10.4001 9.17729 9.79544 9.78167C9.19078 10.386 8.29775 10.6649 7.14424 10.6463H3.51631C3.4512 10.6556 3.40468 10.6557 3.35817 10.6557ZM3.50701 1.40402C2.00932 1.40402 1.39536 2.01772 1.39536 3.51471V7.15956C1.39536 7.9313 1.5628 8.48914 1.89768 8.81457C2.22327 9.13071 2.74422 9.27027 3.47911 9.26097H7.14424C7.92565 9.27957 8.46519 9.1215 8.79078 8.79607C9.11636 8.47064 9.2652 7.92201 9.2466 7.16886V3.5054C9.2652 2.76155 9.11636 2.23154 8.80008 1.9061C8.4745 1.57137 7.91634 1.40402 7.14424 1.40402H3.50701Z" fill="#4C4C4C"/>
<path d="M7.20884 4.98322H3.43206C3.05066 4.98322 2.73438 4.66708 2.73438 4.28586C2.73438 3.90464 3.05066 3.5885 3.43206 3.5885H7.20884C7.59023 3.5885 7.90652 3.90464 7.90652 4.28586C7.90652 4.66708 7.59954 4.98322 7.20884 4.98322Z" fill="#4C4C4C"/>
<path d="M5.33041 4.98352C4.94919 4.98352 4.63306 4.66738 4.63306 4.28616V3.6539C4.63306 3.27268 4.94919 2.95654 5.33041 2.95654C5.71164 2.95654 6.02777 3.27268 6.02777 3.6539V4.28616C6.02777 4.66738 5.71164 4.98352 5.33041 4.98352Z" fill="#4C4C4C"/>
<path d="M3.43206 7.92155C3.05066 7.92155 2.73438 7.60541 2.73438 7.22419C2.73438 6.84297 3.05066 6.52683 3.43206 6.52683C4.61346 6.52683 5.57162 5.52265 5.57162 4.2767C5.57162 3.89548 5.8879 3.57935 6.2693 3.57935C6.6507 3.57935 6.96698 3.89548 6.96698 4.2767C6.96698 6.28509 5.38556 7.92155 3.43206 7.92155Z" fill="#4C4C4C"/>
<path d="M7.21904 7.92185C6.35392 7.92185 5.52601 7.48485 4.93996 6.71311C4.7074 6.40627 4.77252 5.96922 5.0795 5.73676C5.38648 5.50431 5.82368 5.56942 6.05624 5.87625C6.37252 6.30397 6.79113 6.53645 7.21904 6.53645C7.60044 6.53645 7.91672 6.85258 7.91672 7.2338C7.91672 7.61503 7.60044 7.92185 7.21904 7.92185Z" fill="#4C4C4C"/>
<path d="M7.20937 19.9999C3.23724 19.9999 0 16.7642 0 12.7939C0 12.4127 0.316282 12.0966 0.697681 12.0966C1.07908 12.0966 1.39536 12.4127 1.39536 12.7939C1.39536 15.5462 3.31166 17.8521 5.88843 18.4565L5.63726 18.038C5.44191 17.7033 5.54425 17.2756 5.87913 17.0803C6.20472 16.8851 6.64193 16.9874 6.83728 17.3221L7.81402 18.9493C7.94425 19.1631 7.94426 19.4328 7.82333 19.6466C7.6931 19.8605 7.46054 19.9999 7.20937 19.9999Z" fill="#4C4C4C"/>
<path d="M19.3029 7.91242C18.9215 7.91242 18.6052 7.59628 18.6052 7.21506C18.6052 4.46282 16.6889 2.15687 14.1121 1.55249L14.3633 1.97092C14.5586 2.30565 14.4563 2.73339 14.1214 2.92865C13.7958 3.12391 13.3586 3.02163 13.1633 2.68689L12.1865 1.05972C12.0563 0.845862 12.0563 0.576217 12.1772 0.362361C12.2981 0.139207 12.5307 0.0090332 12.7819 0.0090332C16.754 0.0090332 19.9912 3.24477 19.9912 7.21506C20.0005 7.59628 19.6843 7.91242 19.3029 7.91242Z" fill="#4C4C4C"/>
</svg>
