<svg width="22" height="24" viewBox="0 0 22 24" fill="none" xmlns="http://www.w3.org/2000/svg">
<path d="M15.4333 1.86667V3.2H21.0333C21.2455 3.2 21.449 3.28429 21.599 3.43431C21.7491 3.58434 21.8333 3.78783 21.8333 4C21.8333 4.21217 21.7491 4.41566 21.599 4.56569C21.449 4.71571 21.2455 4.8 21.0333 4.8H1.3C1.08783 4.8 0.884344 4.71571 0.734314 4.56569C0.584285 4.41566 0.5 4.21217 0.5 4C0.5 3.78783 0.584285 3.58434 0.734314 3.43431C0.884344 3.28429 1.08783 3.2 1.3 3.2H6.9V1.86667C6.9 0.836267 7.73627 0 8.76667 0H13.5667C14.5971 0 15.4333 0.836267 15.4333 1.86667ZM8.5 1.86667V3.2H13.8333V1.86667C13.8333 1.79594 13.8052 1.72811 13.7552 1.6781C13.7052 1.6281 13.6374 1.6 13.5667 1.6H8.76667C8.69594 1.6 8.62811 1.6281 8.5781 1.6781C8.5281 1.72811 8.5 1.79594 8.5 1.86667ZM3.6968 6.58987C3.68768 6.48455 3.65778 6.38208 3.60882 6.28838C3.55986 6.19469 3.49281 6.11162 3.41156 6.044C3.3303 5.97637 3.23645 5.92551 3.13543 5.89438C3.0344 5.86324 2.92821 5.85243 2.82298 5.86258C2.71775 5.87273 2.61558 5.90363 2.52237 5.95351C2.42916 6.00338 2.34675 6.07123 2.27992 6.15314C2.21309 6.23505 2.16316 6.3294 2.13301 6.43072C2.10286 6.53205 2.09309 6.63834 2.10427 6.74347L3.6104 22.3147C3.65545 22.7762 3.87068 23.2044 4.21416 23.516C4.55765 23.8275 5.00481 24.0001 5.46853 24H16.8648C17.3287 24 17.776 23.8274 18.1195 23.5156C18.463 23.2038 18.6781 22.7753 18.7229 22.3136L20.2301 6.74347C20.2505 6.53214 20.1861 6.32138 20.0511 6.15755C19.916 5.99372 19.7215 5.89024 19.5101 5.86987C19.2988 5.8495 19.088 5.91391 18.9242 6.04894C18.7604 6.18396 18.6569 6.37854 18.6365 6.58987L17.1304 22.1589C17.124 22.2249 17.0933 22.2862 17.0442 22.3308C16.9951 22.3754 16.9311 22.4 16.8648 22.4H5.46853C5.40221 22.4 5.33826 22.3754 5.28915 22.3308C5.24004 22.2862 5.2093 22.2249 5.20293 22.1589L3.6968 6.58987Z" fill="#EB455F"/>
<path d="M8.18635 8.00107C8.29127 7.99487 8.39639 8.0094 8.4957 8.04384C8.59501 8.07828 8.68656 8.13195 8.76511 8.20179C8.84366 8.27163 8.90769 8.35626 8.95352 8.45085C8.99935 8.54544 9.02609 8.64814 9.03221 8.75307L9.56555 17.8197C9.57799 18.0318 9.5057 18.2401 9.36457 18.3988C9.22345 18.5575 9.02505 18.6537 8.81301 18.6661C8.60098 18.6786 8.39269 18.6063 8.23396 18.4652C8.07523 18.324 7.97906 18.1256 7.96661 17.9136L7.43328 8.84694C7.42708 8.74201 7.44161 8.63689 7.47605 8.53758C7.51049 8.43828 7.56416 8.34673 7.634 8.26818C7.70384 8.18962 7.78847 8.1256 7.88306 8.07977C7.97765 8.03394 8.08035 8.00719 8.18528 8.00107H8.18635ZM14.8989 8.84694C14.9113 8.63491 14.839 8.42661 14.6979 8.26788C14.5568 8.10915 14.3584 8.01299 14.1463 8.00054C13.9343 7.98809 13.726 8.06038 13.5673 8.20151C13.4086 8.34264 13.3124 8.54104 13.2999 8.75307L12.7666 17.8197C12.7542 18.0316 12.8264 18.2398 12.9674 18.3984C13.1085 18.557 13.3067 18.6532 13.5186 18.6656C13.7305 18.6781 13.9387 18.6058 14.0973 18.4648C14.2559 18.3238 14.352 18.1255 14.3645 17.9136L14.8989 8.84694Z" fill="#EB455F"/>
</svg>
